<?xml version="1.0" encoding="utf-8" ?>
<svg xmlns="http://www.w3.org/2000/svg" xmlns:xlink="http://www.w3.org/1999/xlink" width="1024" height="1024">
	<path fill="#52536C" transform="scale(2 2)" d="M445.996 354.385C473.643 353.331 473.951 390.456 450.126 391.203C442.161 391.453 434.066 391.128 426.087 391.128L79.226 391.13C69.3236 391.132 57.2902 393.089 49.5044 385.535C36.9196 373.324 46.5142 354.909 65.5573 354.385C85.0312 354.385 104.548 354.671 124.016 354.385L445.996 354.385Z"/>
	<path fill="#FEC745" transform="scale(2 2)" d="M227.01 127.375C227.644 122.862 230.758 117.364 235.708 116.506C239.283 115.885 271.841 115.926 275.554 116.51C280.549 117.296 284.482 122.476 284.503 127.375C296.358 126.968 303.604 131.386 301.528 144.425C330.996 152.961 363.132 173.89 384.846 196.045C407.578 219.238 431.64 257.225 438.568 289.523C440.216 295.68 441.984 301.84 442.79 308.177C445.024 323.509 446.444 338.872 445.996 354.385L124.016 354.385C104.548 354.671 85.0312 354.385 65.5573 354.385C65.3422 339.036 65.9253 323.243 69.0847 308.177C70.0376 301.889 71.5225 295.667 73.1489 289.523L73.1489 289.523C87.455 227.6 149.834 160.683 209.955 144.425C207.77 130.845 214.745 127.001 227.01 127.375Z"/>
	<path fill="#F6AE31" transform="scale(2 2)" d="M65.5573 354.385C65.3422 339.036 65.9253 323.243 69.0847 308.177C73.0622 308.629 77.5363 308.186 81.5625 308.181L108.185 308.177C104.433 321.273 98.9412 340.601 98.6477 354.385L116.004 354.364C118.58 354.353 121.494 354.007 124.016 354.385C104.548 354.671 85.0312 354.385 65.5573 354.385Z"/>
	<path fill="#E19F4C" transform="scale(2 2)" d="M114.631 289.523L141.649 289.516C149.189 289.518 162.753 287.173 162.706 298.906C162.659 310.902 147.173 308.213 139.502 308.196L108.185 308.177L81.5625 308.181C77.5363 308.186 73.0622 308.629 69.0847 308.177C70.0376 301.889 71.5225 295.667 73.1489 289.523L73.1489 289.523C86.9466 289.67 100.851 289.017 114.631 289.523Z"/>
	<path fill="#CE8A3B" transform="scale(2 2)" d="M73.1489 289.523C77.7723 289.684 82.4171 289.526 87.0443 289.523L114.631 289.523C112.493 295.293 110.614 302.85 108.185 308.177L81.5625 308.181C77.5363 308.186 73.0622 308.629 69.0847 308.177C70.0376 301.889 71.5225 295.667 73.1489 289.523Z"/>
	<path fill="#E19F4C" transform="scale(2 2)" d="M442.79 308.177L366.789 308.197C359.666 308.225 348.637 309.274 348.569 299.009C348.5 288.592 358.174 289.513 365.44 289.513L438.568 289.523C440.216 295.68 441.984 301.84 442.79 308.177Z"/>
	<path fill="#E19F4C" transform="scale(2 2)" d="M209.955 144.425C207.77 130.845 214.745 127.001 227.01 127.375C227.03 147.367 227.773 167.226 228.434 187.205L231.889 297.883C232.076 304.475 232.848 311.41 232.278 317.961C229.522 316.609 217.122 306.257 215.299 303.842C214.65 296.171 214.707 288.375 214.475 280.679L211.724 207.632C211.426 200.324 211.018 192.994 210.944 185.682C211.565 172.65 209.297 158.343 209.955 144.425Z"/>
	<path fill="#E19F4C" transform="scale(2 2)" d="M284.503 127.375C296.358 126.968 303.604 131.386 301.528 144.425C301.848 151.07 301.417 157.797 301.236 164.446L298.31 268.013C297.969 279.947 297.273 291.907 297.279 303.842C291.125 307.605 284.713 315.191 279.511 317.961C279.348 310.765 279.775 303.543 280.046 296.354L283.614 165.373C283.858 152.766 285.19 139.977 284.503 127.375Z"/>
	<path fill="#F6AE31" transform="scale(2 2)" d="M73.1489 289.523C87.455 227.6 149.834 160.683 209.955 144.425C209.297 158.343 211.565 172.65 210.944 185.682C204.707 189.344 198.198 192.55 192.101 196.462C158.442 218.055 134.865 246.778 117.976 282.635C116.916 284.885 115.961 287.43 114.631 289.523C100.851 289.017 86.9466 289.67 73.1489 289.523Z"/>
</svg>
